<?xml version="1.0" encoding="UTF-8" standalone="no"?>

<svg
   id="svg15014"
   viewBox="0 0 124.3248 79.163748"
   version="1.1"
   width="124.3248"
   height="79.16375"
   xmlns="http://www.w3.org/2000/svg">

  <g
     id="layer1"
     transform="translate(-0.38336485,-20.889)">
    <path
       id="path15012"
       style="color:#000000;fill:#000000"
       d="m 62.548,20.889 c -17.797,0 -32.227,14.431 -32.227,32.228 0,8.898 3.597,16.959 9.433,22.794 2.917,2.918 4.8,21.287 8.657,22.92 3.857,1.629 24.442,1.629 28.299,0 3.857,-1.633 5.715,-20.002 8.632,-22.92 C 91.178,70.076 94.8,62.015 94.8,53.117 94.8,35.32 80.345,20.889 62.548,20.889 Z M 9.978,38.004 c -3.828,0.092 -7.4182,2.418 -8.9076,6.205 -1.9859,5.049 0.5054,10.775 5.5547,12.761 2.4526,0.964 5.0697,0.827 7.3317,-0.1 l 13.661,5.354 c -0.762,-2.933 -1.301,-5.942 -1.301,-9.107 0,-2.161 0.26,-4.248 0.626,-6.306 l -7.832,-3.077 c -1.024,-2.22 -2.827,-4.09 -5.28,-5.055 -1.262,-0.496 -2.577,-0.706 -3.8528,-0.675 z m 105.14,0 c -1.28,-0.033 -2.59,0.179 -3.86,0.675 -2.45,0.965 -4.25,2.811 -5.28,5.03 l -7.827,3.077 c 0.369,2.066 0.651,4.161 0.651,6.331 0,3.169 -0.555,6.197 -1.326,9.132 l 13.682,-5.379 c 2.27,0.927 4.86,1.039 7.31,0.075 5.05,-1.986 7.54,-7.662 5.56,-12.711 -1.49,-3.787 -5.08,-6.131 -8.91,-6.23 z m -65.733,7.331 c 5.054,0 9.158,4.104 9.158,9.158 0,5.054 -4.104,9.158 -9.158,9.158 -5.054,0 -9.158,-4.104 -9.158,-9.158 0,-5.054 4.104,-9.158 9.158,-9.158 z m 26.322,0 c 5.054,0 9.158,4.104 9.158,9.158 0,5.054 -4.104,9.158 -9.158,9.158 -5.054,0 -9.158,-4.104 -9.158,-9.158 0,-5.054 4.104,-9.158 9.158,-9.158 z M 32.143,72.758 13.953,79.914 C 11.691,78.988 9.0739,78.875 6.6213,79.839 1.572,81.825 -0.9193,87.526 1.0666,92.575 c 1.9859,5.05 7.7116,7.515 12.76,5.53 2.453,-0.965 4.256,-2.81 5.28,-5.029 l 19.792,-7.782 c -0.316,-1.245 -0.649,-2.645 -0.951,-3.653 -0.596,-1.988 -1.654,-3.506 -1.051,-2.903 -1.804,-1.803 -3.364,-3.827 -4.754,-5.98 z m 60.802,0 c -1.397,2.156 -2.974,4.175 -4.779,5.98 0.605,-0.605 -0.457,0.915 -1.051,2.903 -0.299,1.001 -0.637,2.392 -0.951,3.628 l 19.812,7.807 c 1.03,2.219 2.83,4.065 5.28,5.029 5.05,1.985 10.78,-0.48 12.77,-5.53 1.98,-5.049 -0.51,-10.75 -5.56,-12.736 -2.45,-0.964 -5.04,-0.851 -7.31,0.075 L 92.943,72.758 Z" />
  </g>
</svg>
